<svg width="24" height="24" viewBox="0 0 24 24" fill="none" xmlns="http://www.w3.org/2000/svg">
<g id="i.fi-social-linkedin">
<path id="Vector" d="M20.7002 1.4375C21.1299 1.4375 21.5107 1.58398 21.8428 1.87695C22.1748 2.16992 22.3408 2.53125 22.3408 2.96094V21.4766C22.3408 21.9062 22.1748 22.2676 21.8428 22.5605C21.5107 22.8535 21.1299 23 20.7002 23H2.30176C1.87207 23 1.50098 22.8535 1.18848 22.5605C0.875977 22.2676 0.719727 21.9062 0.719727 21.4766V2.96094C0.719727 2.53125 0.875977 2.16992 1.18848 1.87695C1.50098 1.58398 1.87207 1.4375 2.30176 1.4375H20.7002ZM7.10645 19.8359V9.52344H3.94238V19.8359H7.10645ZM5.52441 8.11719C6.03223 8.11719 6.47168 7.93164 6.84277 7.56055C7.21387 7.18945 7.39941 6.75 7.39941 6.24219C7.39941 5.73438 7.21387 5.29492 6.84277 4.92383C6.47168 4.55273 6.03223 4.36719 5.52441 4.36719C5.0166 4.36719 4.57715 4.55273 4.20605 4.92383C3.83496 5.29492 3.64941 5.73438 3.64941 6.24219C3.64941 6.78906 3.8252 7.23828 4.17676 7.58984C4.52832 7.94141 4.97754 8.11719 5.52441 8.11719ZM19.1182 19.8359V14.1523C19.1182 12.5898 18.8545 11.3887 18.3271 10.5488C17.7998 9.70898 16.7939 9.28906 15.3096 9.28906C13.8252 9.28906 12.8096 9.83594 12.2627 10.9297H12.2041V9.52344H9.15723V19.8359H12.3213V14.7383C12.3213 12.9805 12.9658 12.1016 14.2549 12.1016C14.7627 12.1016 15.1436 12.2676 15.3975 12.5996C15.6514 12.9316 15.7979 13.2441 15.8369 13.5371C15.876 13.8301 15.8955 14.25 15.8955 14.7969V19.8359H19.1182Z" fill="#141414"/>
</g>
</svg>
