<svg width="156" height="40" viewBox="0 0 156 40" fill="none" xmlns="http://www.w3.org/2000/svg">
<path d="M31.6475 8.43938C31.0617 7.85354 30.1036 7.85354 29.5178 8.43938L26.4647 11.4948C25.2138 10.6627 23.7784 10.2497 22.3369 10.2497C20.4179 10.2497 18.4741 10.9822 17.0341 12.4469L12.5341 16.9472C9.96774 19.5106 9.65142 23.4747 11.5791 26.384L8.5263 29.4394C7.94045 30.0253 7.94045 30.9745 8.5263 31.5606C8.81934 31.8536 9.2031 32 9.58686 32C9.97086 32 10.3544 31.8536 10.6474 31.5606L13.7002 28.5051C14.9514 29.3372 16.3955 29.7502 17.8369 29.7502C19.731 29.7502 21.6748 29.0178 23.1397 27.553L27.6311 23.053C30.1974 20.4893 30.5138 16.5252 28.5858 13.616L31.6475 10.5605C32.2334 9.97466 32.2334 9.02522 31.6475 8.43938ZM26.8281 17.75C26.8281 18.9512 26.3593 20.0821 25.51 20.9317L21.0186 25.4317C20.1661 26.2813 19.0134 26.75 17.8369 26.75C17.1572 26.75 16.5068 26.5832 15.9092 26.2988L18.1227 24.0605C18.7086 23.4747 18.7086 22.5255 18.1227 21.9394C17.5616 21.3536 16.6124 21.3536 16.0266 21.9394L13.7883 24.1777C13.5013 23.5829 13.3371 22.9325 13.3371 22.25C13.3371 21.0488 13.8058 19.9179 14.6554 19.0683L19.1305 14.5683C19.9801 13.7187 21.1357 13.25 22.3369 13.25C23.0166 13.25 23.6639 13.4168 24.2617 13.7012L21.9796 15.9862C21.3937 16.572 21.3937 17.5212 21.9796 18.1073C22.2726 18.4004 22.6561 18.5468 23.0401 18.5468C23.421 18.5468 23.8048 18.4004 24.0976 18.1073L26.3771 15.8223C26.6639 16.4168 26.8281 17.0674 26.8281 17.75Z" fill="#0065FE"/>
<path d="M40.0869 8V32" stroke="#0065FE" stroke-width="2" stroke-linecap="round"/>
<path d="M55.3829 27.336C52.0469 27.336 49.7189 25.752 48.7829 23.184L51.6149 21.528C52.2629 23.232 53.5589 24.096 55.4789 24.096C57.3269 24.096 58.1669 23.352 58.1669 22.32C58.1669 21.72 57.9029 21.264 57.3749 20.952C56.8469 20.616 55.9109 20.256 54.5429 19.872C53.0309 19.416 52.1189 19.056 51.0629 18.312C50.0309 17.544 49.4789 16.392 49.4789 14.856C49.4789 13.344 50.0069 12.12 51.0869 11.232C52.1669 10.32 53.4869 9.864 54.9989 9.864C57.7109 9.864 59.8469 11.256 60.9989 13.632L58.2149 15.24C57.5429 13.8 56.4629 13.08 54.9989 13.08C53.6309 13.08 52.7909 13.776 52.7909 14.76C52.7909 15.288 53.0069 15.72 53.4389 16.056C53.8949 16.368 54.7349 16.728 55.9829 17.112L57.1349 17.496C57.3989 17.568 57.7589 17.712 58.2149 17.904C58.6709 18.072 59.0309 18.24 59.2709 18.408C59.7749 18.72 60.5429 19.32 60.8549 19.896C61.2149 20.472 61.4789 21.312 61.4789 22.272C61.4789 23.832 60.9029 25.056 59.7749 25.968C58.6469 26.88 57.1829 27.336 55.3829 27.336ZM71.4899 27.336C68.9699 27.336 66.8819 26.496 65.2259 24.816C63.5699 23.136 62.7539 21.072 62.7539 18.6C62.7539 16.128 63.5699 14.04 65.2259 12.384C66.8819 10.704 68.9699 9.864 71.4899 9.864C74.5379 9.864 77.2739 11.4 78.7139 13.824L75.8579 15.48C75.0179 13.968 73.4099 13.08 71.4899 13.08C69.8579 13.08 68.5379 13.584 67.5299 14.616C66.5459 15.648 66.0419 16.968 66.0419 18.6C66.0419 20.208 66.5459 21.528 67.5299 22.56C68.5379 23.592 69.8579 24.096 71.4899 24.096C73.4099 24.096 75.0659 23.184 75.8579 21.72L78.7139 23.376C77.2739 25.8 74.5619 27.336 71.4899 27.336ZM80.7485 27V10.2H84.0605V27H80.7485ZM92.6485 27.336C89.3125 27.336 86.9845 25.752 86.0485 23.184L88.8805 21.528C89.5285 23.232 90.8245 24.096 92.7445 24.096C94.5925 24.096 95.4325 23.352 95.4325 22.32C95.4325 21.72 95.1685 21.264 94.6405 20.952C94.1125 20.616 93.1765 20.256 91.8085 19.872C90.2965 19.416 89.3845 19.056 88.3285 18.312C87.2965 17.544 86.7445 16.392 86.7445 14.856C86.7445 13.344 87.2725 12.12 88.3525 11.232C89.4325 10.32 90.7525 9.864 92.2645 9.864C94.9765 9.864 97.1125 11.256 98.2645 13.632L95.4805 15.24C94.8085 13.8 93.7285 13.08 92.2645 13.08C90.8965 13.08 90.0565 13.776 90.0565 14.76C90.0565 15.288 90.2725 15.72 90.7045 16.056C91.1605 16.368 92.0005 16.728 93.2485 17.112L94.4005 17.496C94.6645 17.568 95.0245 17.712 95.4805 17.904C95.9365 18.072 96.2965 18.24 96.5365 18.408C97.0405 18.72 97.8085 19.32 98.1205 19.896C98.4805 20.472 98.7445 21.312 98.7445 22.272C98.7445 23.832 98.1685 25.056 97.0405 25.968C95.9125 26.88 94.4485 27.336 92.6485 27.336ZM106.125 27.336C102.789 27.336 100.461 25.752 99.5251 23.184L102.357 21.528C103.005 23.232 104.301 24.096 106.221 24.096C108.069 24.096 108.909 23.352 108.909 22.32C108.909 21.72 108.645 21.264 108.117 20.952C107.589 20.616 106.653 20.256 105.285 19.872C103.773 19.416 102.861 19.056 101.805 18.312C100.773 17.544 100.221 16.392 100.221 14.856C100.221 13.344 100.749 12.12 101.829 11.232C102.909 10.32 104.229 9.864 105.741 9.864C108.453 9.864 110.589 11.256 111.741 13.632L108.957 15.24C108.285 13.8 107.205 13.08 105.741 13.08C104.373 13.08 103.533 13.776 103.533 14.76C103.533 15.288 103.749 15.72 104.181 16.056C104.637 16.368 105.477 16.728 106.725 17.112L107.877 17.496C108.141 17.568 108.501 17.712 108.957 17.904C109.413 18.072 109.773 18.24 110.013 18.408C110.517 18.72 111.285 19.32 111.597 19.896C111.957 20.472 112.221 21.312 112.221 22.272C112.221 23.832 111.645 25.056 110.517 25.968C109.389 26.88 107.925 27.336 106.125 27.336ZM128.4 24.816C126.696 26.496 124.632 27.336 122.208 27.336C119.784 27.336 117.72 26.496 116.016 24.816C114.336 23.112 113.496 21.048 113.496 18.6C113.496 16.152 114.336 14.088 116.016 12.408C117.72 10.704 119.784 9.864 122.208 9.864C124.632 9.864 126.696 10.704 128.4 12.408C130.104 14.088 130.944 16.152 130.944 18.6C130.944 21.048 130.104 23.112 128.4 24.816ZM118.344 22.56C119.376 23.592 120.672 24.096 122.208 24.096C123.744 24.096 125.04 23.592 126.072 22.56C127.104 21.528 127.632 20.208 127.632 18.6C127.632 16.992 127.104 15.672 126.072 14.64C125.04 13.608 123.744 13.08 122.208 13.08C120.672 13.08 119.376 13.608 118.344 14.64C117.312 15.672 116.784 16.992 116.784 18.6C116.784 20.208 117.312 21.528 118.344 22.56ZM146.064 27H142.488L139.104 21.168H136.584V27H133.272V10.2H139.992C141.552 10.2 142.872 10.752 143.952 11.832C145.032 12.912 145.584 14.232 145.584 15.768C145.584 17.856 144.288 19.776 142.344 20.664L146.064 27ZM139.992 13.296H136.584V18.264H139.992C141.24 18.264 142.272 17.136 142.272 15.768C142.272 14.4 141.24 13.296 139.992 13.296Z" fill="#0065FE"/>
</svg>
