<svg width="17" height="17" viewBox="0 0 17 17" fill="none" xmlns="http://www.w3.org/2000/svg">
<g id="magic wand">
<path id="Vector" d="M5.45838 4.31608C5.43942 4.54149 5.11142 4.59848 5.00593 4.3947L4.43786 3.29756C4.40112 3.22647 4.32626 3.17897 4.2416 3.17281L2.93436 3.07799C2.69152 3.06038 2.63013 2.75591 2.84967 2.65796L4.03147 2.13063C4.108 2.09647 4.15928 2.02705 4.16584 1.94843L4.268 0.734833C4.28696 0.509422 4.61496 0.452428 4.72046 0.656214L5.28853 1.75335C5.32527 1.82444 5.40003 1.87196 5.48478 1.8781L6.79203 1.97293C7.03487 1.99053 7.09626 2.29501 6.87672 2.39295L5.69492 2.92028C5.61829 2.95446 5.5671 3.02387 5.56055 3.10248L5.45838 4.31608Z" fill="white"/>
<path id="Vector_2" d="M1.70581 5.14419C1.67416 5.25336 1.50731 5.25336 1.47565 5.14419L1.30518 4.55648C1.29417 4.5184 1.26209 4.48866 1.22109 4.47841L0.588026 4.32017C0.470422 4.29078 0.470422 4.1359 0.588026 4.10651L1.22109 3.94827C1.26209 3.93801 1.29417 3.90827 1.30518 3.8702L1.47565 3.28248C1.50731 3.17332 1.67416 3.17332 1.70581 3.28248L1.87628 3.8702C1.88729 3.90827 1.91933 3.93801 1.96037 3.94827L2.59344 4.10651C2.71104 4.1359 2.71104 4.29078 2.59344 4.32017L1.96037 4.47841C1.91933 4.48866 1.88729 4.5184 1.87628 4.55648L1.70581 5.14419Z" fill="white"/>
<path id="Vector_3" d="M3.88745 8.51995C3.8558 8.62911 3.68895 8.62911 3.65729 8.51995L3.48682 7.93224C3.47581 7.89416 3.44373 7.86442 3.40273 7.85417L2.76967 7.69593C2.65206 7.66654 2.65206 7.51166 2.76967 7.48227L3.40273 7.32403C3.44373 7.31377 3.47581 7.28403 3.48682 7.24596L3.65729 6.65824C3.68895 6.54908 3.8558 6.54908 3.88745 6.65824L4.05792 7.24596C4.06893 7.28403 4.10097 7.31377 4.14201 7.32403L4.77508 7.48227C4.89268 7.51166 4.89268 7.66654 4.77508 7.69593L4.14201 7.85417C4.10097 7.86442 4.06893 7.89416 4.05792 7.93224L3.88745 8.51995Z" fill="white"/>
<path id="Vector_4" d="M2.03109 7.19694C2.00998 7.26971 1.89875 7.26971 1.87765 7.19694L1.764 6.80513C1.75666 6.77974 1.73527 6.75992 1.70794 6.75308L1.2859 6.64759C1.20749 6.628 1.20749 6.52474 1.2859 6.50515L1.70794 6.39965C1.73527 6.39282 1.75666 6.37299 1.764 6.34761L1.87765 5.9558C1.89875 5.88302 2.00998 5.88302 2.03109 5.9558L2.14473 6.34761C2.15207 6.37299 2.17343 6.39282 2.20079 6.39965L2.62284 6.50515C2.70124 6.52474 2.70124 6.628 2.62284 6.64759L2.20079 6.75308C2.17343 6.75992 2.15207 6.77974 2.14473 6.80513L2.03109 7.19694Z" fill="white"/>
<path id="Vector_5" d="M7.12191 5.84664C7.1008 5.91941 6.98957 5.91941 6.96847 5.84664L6.85482 5.45482C6.84748 5.42944 6.82609 5.40961 6.79876 5.40278L6.37672 5.29728C6.29832 5.27769 6.29832 5.17444 6.37672 5.15484L6.79876 5.04935C6.82609 5.04251 6.84748 5.02269 6.85482 4.9973L6.96847 4.60549C6.98957 4.53272 7.1008 4.53272 7.12191 4.60549L7.23555 4.9973C7.24289 5.02269 7.26425 5.04251 7.29161 5.04935L7.71366 5.15484C7.79206 5.17444 7.79206 5.27769 7.71366 5.29728L7.29161 5.40278C7.26425 5.40961 7.24289 5.42944 7.23555 5.45482L7.12191 5.84664Z" fill="white"/>
<path id="Vector 1" d="M14.3184 14.003L13.5912 14.6782M4.15802 5.04229L15.9627 15.0877C16.2557 15.3371 16.2657 15.7629 15.9846 16.0239V16.0239C15.7046 16.2839 15.2499 16.2778 14.9807 16.008C10.905 11.9231 3.72867 4.70748 4.15802 5.04229Z" stroke="white"/>
</g>
</svg>
