<svg width="56" height="56" viewBox="0 0 56 56" fill="none" xmlns="http://www.w3.org/2000/svg">
<path d="M31 23H34C34.6566 23 35.3068 23.1293 35.9134 23.3806C36.52 23.6319 37.0712 24.0002 37.5355 24.4645C37.9998 24.9288 38.3681 25.48 38.6194 26.0866C38.8707 26.6932 39 27.3434 39 28C39 28.6566 38.8707 29.3068 38.6194 29.9134C38.3681 30.52 37.9998 31.0712 37.5355 31.5355C37.0712 31.9998 36.52 32.3681 35.9134 32.6194C35.3068 32.8707 34.6566 33 34 33H31M25 33H22C21.3434 33 20.6932 32.8707 20.0866 32.6194C19.48 32.3681 18.9288 31.9998 18.4645 31.5355C17.5268 30.5979 17 29.3261 17 28C17 26.6739 17.5268 25.4021 18.4645 24.4645C19.4021 23.5268 20.6739 23 22 23H25" stroke="#141414" stroke-width="2" stroke-linecap="round" stroke-linejoin="round"/>
<path d="M24 28H32" stroke="#005AE2" stroke-width="2" stroke-linecap="round" stroke-linejoin="round"/>
<circle cx="28" cy="28" r="28" fill="#3284FF" fill-opacity="0.13"/>
</svg>
